<svg xmlns="http://www.w3.org/2000/svg" viewBox="0 0 120 120">
  <defs>
    <linearGradient id="cloudSnowGrad" x1="0" y1="0" x2="1" y2="1">
      <stop offset="0%" stop-color="#f8fafc"/>
      <stop offset="100%" stop-color="#dbeafe"/>
    </linearGradient>
  </defs>
  <rect width="120" height="120" rx="28" fill="none"/>
  <path d="M36 56c-9 0-16-7-16-16 0-8.8 7.2-16 16-16 1.9 0 3.8.4 5.5 1.2A24 24 0 0 1 88 32c8.8 0 16 7.2 16 16s-7.2 16-16 16H36z" fill="url(#cloudSnowGrad)" stroke="#cbd5e1" stroke-width="5" stroke-linejoin="round"/>
  <g stroke="#ffffff" stroke-width="4" stroke-linecap="round">
    <line x1="42" y1="86" x2="42" y2="100"/>
    <line x1="42" y1="92" x2="36" y2="96"/>
    <line x1="42" y1="92" x2="48" y2="96"/>
    <line x1="60" y1="86" x2="60" y2="100"/>
    <line x1="60" y1="92" x2="54" y2="96"/>
    <line x1="60" y1="92" x2="66" y2="96"/>
    <line x1="78" y1="86" x2="78" y2="100"/>
    <line x1="78" y1="92" x2="72" y2="96"/>
    <line x1="78" y1="92" x2="84" y2="96"/>
  </g>
</svg>
